<?xml version="1.0" encoding="iso-8859-1"?>
<!-- Generator: Adobe Illustrator 19.0.0, SVG Export Plug-In . SVG Version: 6.00 Build 0)  -->
<svg xmlns="http://www.w3.org/2000/svg" xmlns:xlink="http://www.w3.org/1999/xlink" version="1.1" id="Layer_1" x="0px" y="0px" viewBox="0 0 512 512" style="enable-background:new 0 0 512 512;" xml:space="preserve" width="512px" height="512px">
<g>
	<g>
		<path d="M489.374,352.49c-0.814-61.149-25.01-118.517-68.339-161.847C385.689,155.298,341,132.7,292.54,125.126    c0.949-3.318,1.468-6.815,1.468-10.433c0-20.957-17.05-38.008-38.008-38.008s-38.008,17.05-38.008,38.008    c0,3.618,0.519,7.116,1.468,10.433C171,132.7,126.311,155.298,90.966,190.644C47.636,233.972,23.441,291.342,22.627,352.49H0    v82.826h512V352.49H489.374z M255.999,107.101c4.185,0,7.591,3.405,7.591,7.591c0,4.186-3.405,7.591-7.591,7.591    c-4.186,0-7.591-3.405-7.591-7.591C248.408,110.507,251.814,107.101,255.999,107.101z M256,152.701    c110.856,0,201.226,89.332,202.937,199.789H53.063C54.774,242.034,145.144,152.701,256,152.701z M481.583,404.899H30.417v-21.992    h7.396h15.209h405.956h18.391h4.214V404.899z" fill="#ff9900"/>
	</g>
</g>
<g>
</g>
<g>
</g>
<g>
</g>
<g>
</g>
<g>
</g>
<g>
</g>
<g>
</g>
<g>
</g>
<g>
</g>
<g>
</g>
<g>
</g>
<g>
</g>
<g>
</g>
<g>
</g>
<g>
</g>
</svg>
